HIERARCHY
ROOT Hips
{
	OFFSET 0.000000 0.000000 0.000000
	CHANNELS 6 Xposition Yposition Zposition Zrotation Yrotation Xrotation 
	JOINT LHipJoint
	{
		OFFSET 0.000000 0.000000 0.000000
		CHANNELS 3 Zrotation Yrotation Xrotation
		JOINT LeftUpLeg
		{
			OFFSET 1.363060 -1.794630 0.839290
			CHANNELS 3 Zrotation Yrotation Xrotation
			JOINT LeftLeg
			{
				OFFSET 2.448110 -6.726130 0.000000
				CHANNELS 3 Zrotation Yrotation Xrotation
				JOINT LeftFoot
				{
					OFFSET 2.562200 -7.039590 0.000000
					CHANNELS 3 Zrotation Yrotation Xrotation
					JOINT LeftToeBase
					{
						OFFSET 0.157640 -0.433110 2.322550
						CHANNELS 3 Zrotation Yrotation Xrotation
						End Site
						{
							OFFSET 0.000000 0.000000 0.000000
						}
					}
				}
			}
		}
	}
	JOINT RHipJoint
	{
		OFFSET 0.000000 0.000000 0.000000
		CHANNELS 3 Zrotation Yrotation Xrotation
		JOINT RightUpLeg
		{
			OFFSET -1.305520 -1.794630 0.839290
			CHANNELS 3 Zrotation Yrotation Xrotation
			JOINT RightLeg
			{
				OFFSET -2.542530 -6.985550 0.000000
				CHANNELS 3 Zrotation Yrotation Xrotation
				JOINT RightFoot
				{
					OFFSET -2.568260 -7.056230 0.000000
					CHANNELS 3 Zrotation Yrotation Xrotation
					JOINT RightToeBase
					{
						OFFSET -0.164730 -0.452590 2.363150
						CHANNELS 3 Zrotation Yrotation Xrotation
						End Site
						{
							OFFSET 0.000000 0.000000 0.000000
						}
					}
				}
			}
		}
	}
	JOINT LowerBack
	{
		OFFSET 0.000000 0.000000 0.000000
		CHANNELS 3 Zrotation Yrotation Xrotation
		JOINT Spine
		{
			OFFSET 0.028270 2.035590 -0.193380
			CHANNELS 3 Zrotation Yrotation Xrotation
			JOINT Spine1
			{
				OFFSET 0.056720 2.048850 -0.042750
				CHANNELS 3 Zrotation Yrotation Xrotation
				JOINT Neck
				{
					OFFSET 0.000000 0.000000 0.000000
					CHANNELS 3 Zrotation Yrotation Xrotation
					JOINT Neck1
					{
						OFFSET -0.054170 1.746240 0.172020
						CHANNELS 3 Zrotation Yrotation Xrotation
						JOINT Head
						{
							OFFSET 0.104070 1.761360 -0.123970
							CHANNELS 3 Zrotation Yrotation Xrotation
							End Site
							{
								OFFSET 0.000000 0.000000 0.000000
							}
						}
					}
				}
				JOINT LeftShoulder
				{
					OFFSET 0.000000 0.000000 0.000000
					CHANNELS 3 Zrotation Yrotation Xrotation
					JOINT LeftArm
					{
						OFFSET 3.362410 1.200890 -0.311210
						CHANNELS 3 Zrotation Yrotation Xrotation
						JOINT LeftForeArm
						{
							OFFSET 4.983000 -0.000000 -0.000000
							CHANNELS 3 Zrotation Yrotation Xrotation
							JOINT LeftHand
							{
								OFFSET 3.483560 -0.000000 -0.000000
								CHANNELS 3 Zrotation Yrotation Xrotation
								JOINT LeftFingerBase
								{
									OFFSET 0.000000 0.000000 0.000000
									CHANNELS 3 Zrotation Yrotation Xrotation
									JOINT LeftHandIndex1
									{
										OFFSET 0.715260 -0.000000 -0.000000
										CHANNELS 3 Zrotation Yrotation Xrotation
										End Site
										{
											OFFSET 0.000000 0.000000 0.000000
										}
									}
								}
								JOINT LThumb
								{
									OFFSET 0.000000 0.000000 0.000000
									CHANNELS 3 Zrotation Yrotation Xrotation
									End Site
									{
										OFFSET 0.000000 0.000000 0.000000
									}
								}
							}
						}
					}
				}
				JOINT RightShoulder
				{
					OFFSET 0.000000 0.000000 0.000000
					CHANNELS 3 Zrotation Yrotation Xrotation
					JOINT RightArm
					{
						OFFSET -3.136600 1.374050 -0.404650
						CHANNELS 3 Zrotation Yrotation Xrotation
						JOINT RightForeArm
						{
							OFFSET -5.241900 -0.000000 -0.000000
							CHANNELS 3 Zrotation Yrotation Xrotation
							JOINT RightHand
							{
								OFFSET -3.444170 -0.000000 -0.000000
								CHANNELS 3 Zrotation Yrotation Xrotation
								JOINT RightFingerBase
								{
									OFFSET 0.000000 0.000000 0.000000
									CHANNELS 3 Zrotation Yrotation Xrotation
									JOINT RightHandIndex1
									{
										OFFSET -0.622530 -0.000000 -0.000000
										CHANNELS 3 Zrotation Yrotation Xrotation
										End Site
										{
											OFFSET 0.000000 0.000000 0.000000
										}
									}
								}
								JOINT RThumb
								{
									OFFSET 0.000000 0.000000 0.000000
									CHANNELS 3 Zrotation Yrotation Xrotation
									End Site
									{
										OFFSET 0.000000 0.000000 0.000000
									}
								}
							}
						}
					}
				}
			}
		}
	}
}
MOTION
Frames: 4
Frame Time: 0.008333
7.404135 15.380136 2.491911 8.817855 67.130833 34.066701 -8.900128 -0.602299 -4.461198 -13.297430 6.186829 -51.087242 -1.567570 4.406619 64.307452 2.372965 7.931930 -27.672164 -3.280900 0.000000 -45.737300 12.217406 2.766049 -4.919879 4.773711 -7.638600 -53.962650 -2.581982 -7.250552 89.413678 -1.497460 -5.591557 -21.453961 1.337601 0.000000 -33.781701 -3.094267 -1.735703 12.458541 -1.216005 -1.363135 -0.517771 -5.077898 -1.250816 -1.491296 5.353008 -4.967166 -2.772512 -2.651806 -0.226876 0.877768 0.000000 0.000000 0.000000 1.047101 1.747741 0.453993 -57.998728 -24.665802 -1.057727 -179.499355 -83.458853 179.949633 5.510637 3.545510 0.155138 -0.168136 0.440660 -0.000000 0.000000 0.000000 0.000000 0.000000 0.000000 0.000000 5.304675 -2.334294 1.420833 77.717445 -13.375357 17.829206 0.143475 67.978118 -0.062662 -18.534418 5.513853 -0.949789 0.170755 -0.255516 -0.000000 0.000000 0.000000 0.000000 0.000000 0.000000 0.000000 
7.556611 15.450368 2.584454 8.706239 66.900461 33.832800 -8.950853 -0.522013 -4.519629 -12.998226 6.550855 -49.652536 -1.624840 4.296721 63.277975 2.342974 8.043402 -27.117010 -3.221600 -0.000000 -47.128901 12.055686 2.877256 -4.838014 5.340066 -7.572107 -55.122572 -2.371265 -7.210875 88.139513 -1.534888 -5.598725 -21.570968 1.363100 0.000000 -33.345000 -2.825566 -1.922400 12.456311 -1.162162 -1.569173 -0.488464 -5.057740 -1.455361 -1.420996 5.380557 -5.757346 -2.910729 -2.626104 -0.224462 0.847684 0.000000 0.000000 0.000000 1.932801 1.766959 0.340122 -57.070539 -25.559235 -1.771594 -179.422205 -82.233716 179.955241 4.819439 3.190807 0.119716 -0.152734 0.458693 -0.000000 0.000000 0.000000 0.000000 0.000000 0.000000 0.000000 5.184096 -3.206101 1.354900 76.922416 -14.995129 19.416673 0.153127 70.173710 -0.059392 -17.535738 6.519128 -1.056417 0.162678 -0.266520 -0.000000 0.000000 0.000000 0.000000 0.000000 0.000000 0.000000 
7.710119 15.527536 2.681090 8.574830 66.617599 33.602304 -8.999084 -0.438817 -4.570778 -12.677768 6.916618 -48.203526 -1.676432 4.179701 62.146037 2.286534 8.074660 -26.321622 -3.093500 -0.000000 -48.702300 11.889817 2.973799 -4.738933 5.907431 -7.474816 -56.226403 -2.137494 -7.156086 86.647257 -1.574498 -5.609765 -21.608985 1.380300 0.000000 -33.188600 -2.561968 -2.093138 12.431292 -1.107858 -1.760885 -0.464804 -5.030712 -1.646821 -1.344467 5.380436 -6.570984 -3.056752 -2.593097 -0.221516 0.815876 0.000000 0.000000 0.000000 2.762062 1.784454 0.223453 -56.069221 -26.194981 -2.523964 -179.347100 -80.964891 179.960319 4.223792 2.881496 0.092796 -0.138446 0.474477 -0.000000 0.000000 0.000000 0.000000 0.000000 0.000000 0.000000 5.003307 -4.095624 1.284898 76.227129 -16.458784 20.789517 0.160003 72.269258 -0.056190 -16.448527 7.420637 -1.123560 0.152940 -0.277719 -0.000000 0.000000 0.000000 0.000000 0.000000 0.000000 0.000000 
7.865269 15.610867 2.781601 8.409346 66.287976 33.367989 -9.049142 -0.352761 -4.610457 -12.330869 7.287058 -46.771348 -1.719164 4.060306 60.940894 2.202255 8.014615 -25.273420 -2.893899 0.000000 -50.438000 11.716766 3.052178 -4.620170 6.491008 -7.344736 -57.269097 -1.881787 -7.083000 84.930793 -1.618427 -5.635678 -21.567251 1.391000 0.000000 -33.370200 -2.292466 -2.250182 12.373931 -1.049815 -1.940682 -0.446749 -4.995503 -1.827435 -1.253257 5.346873 -7.395670 -3.213507 -2.551563 -0.217886 0.781591 0.000000 0.000000 0.000000 3.517471 1.837960 0.105998 -55.028744 -26.617181 -3.269782 -179.276302 -79.688449 179.964742 3.723027 2.622842 0.072773 -0.125633 0.487887 -0.000000 0.000000 0.000000 0.000000 0.000000 0.000000 0.000000 4.754555 -4.990517 1.212436 75.656157 -17.765821 21.930978 0.163754 74.191446 -0.053086 -15.344331 8.137272 -1.146421 0.142321 -0.287636 -0.000000 0.000000 0.000000 0.000000 0.000000 0.000000 0.000000 
